Coordinates
version=1
nRows=14
nColumns=36
inDegrees=yes

Units are S.I. units (second, meters, Newtons, ...)
If the header above contains a line with 'inDegrees', this indicates whether rotational values are in degrees (yes) or radians (no).

endheader
time	pelvis_tilt	pelvis_list	pelvis_rotation	pelvis_tx	pelvis_ty	pelvis_tz	hip_flexion_r	hip_adduction_r	hip_rotation_r	knee_angle_r	knee_angle_r_beta	ankle_angle_r	subtalar_angle_r	mtp_angle_r	hip_flexion_l	hip_adduction_l	hip_rotation_l	knee_angle_l	knee_angle_l_beta	ankle_angle_l	subtalar_angle_l	mtp_angle_l	lumbar_extension	lumbar_bending	lumbar_rotation	arm_flex_r	arm_add_r	arm_rot_r	elbow_flex_r	pro_sup_r	arm_flex_l	arm_add_l	arm_rot_l	elbow_flex_l	pro_sup_l
      1.04000000	      1.24318243	      1.31194907	      0.96062122	      1.11810892	      0.95381700	     -0.28844422	     23.01142871	     -3.10589765	    -12.64602600	      8.10226800	      0.14141125	      2.32393118	    -18.81102822	     -7.28976669	    -11.83550732	      4.95741797	     -5.55927750	      2.81979471	      0.04921470	      9.49376839	     -9.02887557	     -7.28976669	     -8.37827591	     -1.96471057	     -7.60440527	    -14.03801959	     -1.26249217	    -21.42740112	     25.24907671	    111.88736780	     20.77701049	    -10.00901803	     -0.76862235	     52.77933583	    109.58242762
      1.05000000	      1.03106626	      1.53718195	      1.13227992	      1.12951068	      0.95150828	     -0.28812208	     23.07239850	     -3.09058760	    -12.70217507	      5.80172727	      0.10125924	      2.36283243	    -18.02969981	     -7.29208193	    -12.20303482	      5.09544090	     -5.38187205	      3.21809761	      0.05616640	      9.91595791	     -9.13730774	     -7.29208193	     -8.18540407	     -2.28720614	     -7.89029295	    -14.35681199	     -1.18876164	    -21.61332029	     25.25435788	    111.92151984	     21.28430680	    -10.14054447	     -0.58061118	     53.28305227	    109.60426632
      1.06000000	      0.94576210	      1.71833896	      1.29414725	      1.14102781	      0.94936170	     -0.28769448	     23.03027493	     -3.04240338	    -12.81432423	      3.93987822	      0.06876385	      2.45454331	    -17.35744595	     -7.29428564	    -12.69544749	      5.16315044	     -5.24079383	      3.64827146	      0.06367435	     10.28486458	     -9.19372574	     -7.29428564	     -8.16224123	     -2.58213901	     -8.16177899	    -14.61292582	     -1.13740343	    -21.79801347	     25.27218535	    111.94549938	     21.73572500	    -10.25447105	     -0.38388846	     53.85029108	    109.63543940
      1.07000000	      0.90031395	      1.88300628	      1.43134564	      1.15262996	      0.94725204	     -0.28722099	     22.99271978	     -2.99629094	    -12.91094004	      2.55220908	      0.04454445	      2.62539916	    -16.72980937	     -7.29639380	    -13.20653047	      5.21055380	     -5.15754223	      4.14635985	      0.07236763	     10.62367413	     -9.23115405	     -7.29639380	     -8.17923966	     -2.80460165	     -8.39255381	    -14.80115867	     -1.06152306	    -21.96578977	     25.29442519	    111.96536511	     22.11605304	    -10.34711232	     -0.23762815	     54.39008697	    109.66454748
      1.08000000	      0.81116477	      2.06406472	      1.45641260	      1.16437491	      0.94506827	     -0.28649072	     23.18993561	     -2.96009835	    -13.07463108	      1.89819036	      0.03312967	      2.77836603	    -16.53776063	     -7.29699257	    -13.72178359	      5.28614603	     -5.15229018	      4.51870275	      0.07886624	     10.72690900	     -9.26910108	     -7.29699257	     -8.11354721	     -3.07862403	     -8.49976502	    -14.98664756	     -1.04491549	    -22.02428756	     25.25387099	    111.96750380	     22.46604674	    -10.41088082	     -0.23881739	     54.68184258	    109.68219325
      1.09000000	      0.89835132	      2.12257256	      1.63421747	      1.17621060	      0.94326957	     -0.28598029	     22.97285980	     -2.84174298	    -12.85007879	      1.33008539	      0.02321437	      3.02941448	    -15.90060604	     -7.29819395	    -14.25017069	      5.16332927	     -5.06990412	      5.29378620	      0.09239400	     10.96598927	     -9.34480461	     -7.29819395	     -8.27772994	     -3.19733288	     -8.71891491	    -15.09419195	     -1.00913307	    -22.13225255	     25.24935735	    111.97522198	     22.73237753	    -10.36034721	     -0.13903203	     55.15318031	    109.72289459
      1.10000000	      1.09489941	      2.00617367	      1.68192258	      1.18859855	      0.94167413	     -0.28517590	     22.71237944	     -2.54266473	    -13.27942964	      1.35845086	      0.02370944	      4.65276057	    -13.42939119	     -7.30648157	    -14.97293756	      4.82216625	     -5.62047276	      5.94303820	      0.10372558	     11.67692038	     -8.46524003	     -7.30648157	     -8.53065195	     -3.06697581	     -9.06988293	    -15.11028766	     -1.00800229	    -22.72099847	     25.48349018	    112.06396715	     22.54886512	    -10.52027768	     -0.34149617	     56.04343847	    109.74979787
      1.11000000	      1.20812791	      1.93875236	      1.73262833	      1.20098440	      0.94008439	     -0.28433368	     22.42254701	     -2.24988188	    -12.85962463	      1.45488023	      0.02539245	      4.92812950	    -12.98022706	     -7.30990092	    -15.54714951	      4.54648401	     -5.79566990	      6.68818331	      0.11673082	     11.78426946	     -8.45001344	     -7.30990092	     -8.64638924	     -3.01841986	     -9.15090349	    -15.17385182	     -1.04715785	    -22.81514233	     25.46803000	    112.11309052	     22.65643468	    -10.41558855	     -0.45343987	     56.12774272	    109.75708148
      1.12000000	      1.28798021	      1.83054967	      1.78124513	      1.21362253	      0.93857524	     -0.28344004	     22.12108437	     -1.91362352	    -12.30716838	      1.77006097	      0.03089339	      4.97198824	    -12.73694635	     -7.31087930	    -16.11345323	      4.22606724	     -5.73951791	      7.39179077	      0.12901109	     11.66872476	     -8.41976800	     -7.31087930	     -8.69109197	     -2.89887569	     -9.23627029	    -15.21516639	     -1.11603836	    -22.85758124	     25.47004473	    112.12222504	     22.61004603	    -10.34945351	     -0.48185202	     56.18648855	    109.76732917
      1.13000000	      1.39915400	      1.62628684	      1.79171153	      1.22644986	      0.93727994	     -0.28236574	     21.72279360	     -1.44962012	    -11.58191051	      2.21292710	      0.03862286	      5.00548887	    -12.47972783	     -7.31188980	    -16.61915551	      3.77146203	     -5.83786525	      8.27630318	      0.14444874	     11.48942041	     -8.42386969	     -7.31188980	     -8.76397881	     -2.67839869	     -9.28151251	    -15.19556397	     -1.22322855	    -22.90905671	     25.50479223	    112.13017235	     22.44821856	    -10.25936989	     -0.56039466	     56.21856722	    109.77446122
      1.14000000	      1.46222651	      1.43068963	      1.75310754	      1.23965556	      0.93611839	     -0.28121855	     21.35431456	     -0.99330762	    -10.92569405	      2.74653134	      0.04793601	      4.89357252	    -12.29008741	     -7.31253359	    -17.09533931	      3.34828383	     -5.84020140	      9.13959586	      0.15951604	     11.22748321	     -8.38815156	     -7.31253359	     -8.71756250	     -2.42534964	     -9.26822331	    -15.22231661	     -1.35941438	    -22.95612186	     25.51431164	    112.13150655	     22.08786144	    -10.14378137	     -0.62740889	     56.14962203	    109.77147914
      1.15000000	      1.43321728	      1.08285387	      1.64908505	      1.25297058	      0.93502222	     -0.27965184	     21.05377247	     -0.32656220	    -10.10680406	      3.26684818	      0.05701726	      4.51743830	    -12.31350426	     -7.31495220	    -17.11918992	      2.64528475	     -6.81478066	     10.64160500	      0.18573104	     10.77258102	     -8.35046877	     -7.31495220	     -8.54666930	     -2.04581712	     -9.21536881	    -15.17560209	     -1.46708857	    -23.04917169	     25.56517418	    112.14829246	     21.58008030	     -9.92189268	     -1.11389733	     56.09452292	    109.75999378
      1.16000000	      1.31559807	      0.75088371	      1.48775231	      1.26643337	      0.93408707	     -0.27790767	     20.83710852	      0.35455162	     -8.90184895	      3.74887143	      0.06543015	      2.83776154	    -13.87748697	     -7.32519462	    -17.08642003	      1.96149727	     -7.40417042	     12.10374549	      0.21125021	     10.66893313	     -7.48305415	     -7.32519462	     -8.25340380	     -1.66279240	     -9.27783552	    -14.97269559	     -1.63845593	    -23.07113614	     25.45559770	    112.23263652	     20.75675146	     -9.69529519	     -2.03653877	     56.14972553	    109.86750894
      1.17000000	      1.27237066	      0.42866803	      1.36882671	      1.28006397	      0.93359470	     -0.27632453	     20.63224101	      0.89754028	     -8.46405613	      4.46048723	      0.07785019	      1.90190199	    -13.99265314	     -7.32731425	    -17.03812595	      1.29865409	     -7.76229753	     13.66619594	      0.23852012	      9.68823461	     -7.65891217	     -7.32731425	     -8.03081426	     -1.23799722	     -9.11619151	    -14.88245461	     -1.86060597	    -23.04488695	     25.40306178	    112.24301584	     20.10824254	     -9.49129008	     -2.22940174	     55.67562468	    109.83904150
